<svg width="32" height="32" viewBox="0 0 32 32" fill="none" xmlns="http://www.w3.org/2000/svg">
<path d="M28.4575 30.003C29.3109 30.003 30.003 29.3109 30.003 28.4573V3.54554C30.003 2.69182 29.311 2 28.4575 2H3.54555C2.69182 2 2 2.69182 2 3.54554V28.4573C2 29.3108 2.69172 30.003 3.54555 30.003H28.4575Z" fill="white"/>
<path d="M21.3217 30.003V19.1587H24.9616L25.5066 14.9325H21.3217V12.2343C21.3217 11.0107 21.6614 10.1769 23.416 10.1769L25.654 10.1759V6.39594C25.2669 6.34444 23.9385 6.22937 22.3929 6.22937C19.1663 6.22937 16.9573 8.19889 16.9573 11.8158V14.9325H13.308V19.1587H16.9573V30.003H21.3217Z" fill="#828282"/>
</svg>
