<svg width="32" height="32" viewBox="0 0 32 32" fill="none" xmlns="http://www.w3.org/2000/svg">
<path d="M28.4444 5.33333H3.55555C3.08405 5.33333 2.63187 5.52063 2.29847 5.85403C1.96507 6.18743 1.77777 6.63962 1.77777 7.11111V24.8889C1.77777 25.3604 1.96507 25.8126 2.29847 26.146C2.63187 26.4794 3.08405 26.6667 3.55555 26.6667H28.4444C28.9159 26.6667 29.3681 26.4794 29.7015 26.146C30.0349 25.8126 30.2222 25.3604 30.2222 24.8889V7.11111C30.2222 6.63962 30.0349 6.18743 29.7015 5.85403C29.3681 5.52063 28.9159 5.33333 28.4444 5.33333ZM27.0755 24.8889H5.0311L11.2533 18.4533L9.97333 17.2178L3.55555 23.8578V8.46222L14.6044 19.4578C14.9375 19.7889 15.3881 19.9747 15.8578 19.9747C16.3274 19.9747 16.778 19.7889 17.1111 19.4578L28.4444 8.18667V23.7422L21.9022 17.2L20.6489 18.4533L27.0755 24.8889ZM4.71999 7.11111H27.0044L15.8578 18.1956L4.71999 7.11111Z" fill="white"/>
</svg>
