<svg width="32" height="32" viewBox="0 0 32 32" fill="none" xmlns="http://www.w3.org/2000/svg">
<path d="M29.0784 2.91477C27.3152 1.15157 25.7472 1.67157 25.7472 1.67157L11.9248 15.4828L9.6 22.3932L16.5072 20.0668L30.3216 6.24597C30.3216 6.24597 30.84 4.67797 29.0784 2.91477ZM16.968 18.5612L16.2144 19.3132L13.8576 20.1132C13.675 19.6686 13.4039 19.2658 13.0608 18.9292C12.7239 18.5864 12.3212 18.3154 11.8768 18.1324L12.6768 15.7756L13.4304 15.0236C13.4304 15.0236 14.672 14.8812 15.8896 16.1004C17.1088 17.318 16.968 18.5612 16.968 18.5612ZM25.6 27.1932H4.8V6.39317H12.8L16 3.19317H4.8C3.04 3.19317 1.6 4.63317 1.6 6.39317V27.1932C1.6 28.9532 3.04 30.3932 4.8 30.3932H25.6C27.36 30.3932 28.8 28.9532 28.8 27.1932V15.9932L25.6 19.1932V27.1932Z" fill="#828282"/>
</svg>
