<svg width="32" height="32" viewBox="0 0 32 32" fill="none" xmlns="http://www.w3.org/2000/svg">
<path d="M24.6489 31.5022C24.35 31.5014 24.052 31.4686 23.76 31.4044C18.2015 30.2546 13.0806 27.5586 8.98668 23.6267C4.98017 19.6861 2.20143 14.669 0.986683 9.18223C0.843449 8.49841 0.878604 7.78925 1.08877 7.12295C1.29893 6.45666 1.67703 5.85566 2.18668 5.37778L5.74224 1.95556C5.92384 1.78382 6.13962 1.6523 6.3755 1.56959C6.61137 1.48688 6.86203 1.45484 7.11113 1.47556C7.36941 1.5025 7.61865 1.5857 7.84132 1.71931C8.064 1.85291 8.2547 2.03368 8.40002 2.24889L12.8445 8.81778C13.0111 9.07266 13.0916 9.37431 13.074 9.67834C13.0564 9.98237 12.9417 10.2727 12.7467 10.5067L10.5156 13.1733C11.4042 15.14 12.6625 16.9174 14.2222 18.4089C15.7718 19.9545 17.6034 21.1886 19.6178 22.0444L22.3822 19.8489C22.6144 19.6654 22.897 19.5569 23.1923 19.5379C23.4876 19.5188 23.7817 19.5901 24.0356 19.7422L30.7467 24.08C30.977 24.2175 31.1732 24.4054 31.3206 24.6295C31.468 24.8536 31.5628 25.1081 31.5978 25.374C31.6329 25.64 31.6073 25.9104 31.523 26.165C31.4387 26.4197 31.2979 26.652 31.1111 26.8444L27.6445 30.2756C27.2507 30.6674 26.7833 30.9775 26.2692 31.188C25.7551 31.3986 25.2044 31.5053 24.6489 31.5022ZM6.9689 3.23556L3.41335 6.65778C3.12664 6.92494 2.9144 7.26212 2.79751 7.63617C2.68062 8.01021 2.66311 8.40825 2.74668 8.79112C3.87621 13.9397 6.47265 18.6509 10.2222 22.3556C14.0749 26.0547 18.8939 28.5906 24.1245 29.6711C24.5204 29.7539 24.9306 29.7371 25.3185 29.6223C25.7063 29.5075 26.0596 29.2983 26.3467 29.0133L29.8133 25.5822L23.3333 21.3956L20.3645 23.76C20.2508 23.85 20.1169 23.9108 19.9743 23.9371C19.8318 23.9634 19.685 23.9545 19.5467 23.9111C17.0815 23.0028 14.8475 21.5611 13.0045 19.6889C11.0981 17.9086 9.61835 15.7209 8.67557 13.2889C8.63569 13.1417 8.63436 12.9866 8.67172 12.8388C8.70909 12.6909 8.78388 12.5551 8.8889 12.4444L11.2889 9.57334L6.9689 3.23556Z" fill="white"/>
</svg>
