<svg width="80" height="80" viewBox="0 0 80 80" fill="none" xmlns="http://www.w3.org/2000/svg">
<path d="M40 16.6667C34.1488 16.6668 28.4008 18.2072 23.3336 21.1328C18.2664 24.0585 14.0586 28.2664 11.1331 33.3337C8.20758 38.401 6.66744 44.1491 6.66748 50.0002C6.66752 55.8514 8.20772 61.5994 11.1333 66.6667C11.5753 67.4358 12.3048 67.9979 13.1612 68.2291C14.0176 68.4604 14.9308 68.3421 15.7 67.9C16.4691 67.458 17.0311 66.7285 17.2624 65.8721C17.4937 65.0157 17.3753 64.1025 16.9333 63.3334C14.5714 59.2871 13.3289 54.6852 13.3333 50C13.3349 45.9106 14.277 41.8764 16.0867 38.2092C17.8965 34.5421 20.5253 31.3403 23.7701 28.8514C27.0149 26.3625 30.7886 24.6532 34.7995 23.8557C38.8104 23.0582 42.951 23.1939 46.901 24.2522C50.8511 25.3105 54.5049 27.2631 57.5798 29.959C60.6548 32.6549 63.0685 36.0219 64.6343 39.7996C66.2002 43.5773 66.8762 47.6646 66.6101 51.7453C66.3441 55.826 65.1431 59.7909 63.1 63.3334C62.8796 63.7138 62.7366 64.1341 62.6793 64.57C62.6221 65.0059 62.6516 65.4489 62.7662 65.8734C62.8809 66.2978 63.0784 66.6954 63.3473 67.0433C63.6162 67.3911 63.9513 67.6823 64.3333 67.9C65.0987 68.3346 66.0049 68.4488 66.8542 68.2178C67.7035 67.9867 68.4269 67.4291 68.8666 66.6667C71.7922 61.5994 73.3324 55.8514 73.3325 50.0002C73.3325 44.1491 71.7924 38.401 68.8668 33.3337C65.9413 28.2664 61.7335 24.0585 56.6663 21.1328C51.5991 18.2072 45.8511 16.6668 40 16.6667ZM49.4666 35.8667L44.3 41C42.9626 40.3406 41.4911 39.9984 40 40C38.0222 40 36.0888 40.5865 34.4443 41.6853C32.7998 42.7841 31.518 44.3459 30.7612 46.1732C30.0043 48.0005 29.8063 50.0111 30.1921 51.9509C30.578 53.8907 31.5304 55.6726 32.9289 57.0711C34.3274 58.4696 36.1093 59.422 38.0491 59.8079C39.9889 60.1937 41.9995 59.9957 43.8268 59.2388C45.6541 58.4819 47.2159 57.2002 48.3147 55.5557C49.4135 53.9112 50 51.9778 50 50C49.9977 48.52 49.6555 47.0603 49 45.7334L54.1666 40.6C54.4791 40.2901 54.727 39.9215 54.8963 39.5153C55.0655 39.1091 55.1526 38.6734 55.1526 38.2334C55.1526 37.7933 55.0655 37.3576 54.8963 36.9514C54.727 36.5452 54.4791 36.1766 54.1666 35.8667C53.5421 35.2459 52.6973 34.8974 51.8166 34.8974C50.936 34.8974 50.0912 35.2459 49.4666 35.8667ZM40 53.3334C39.1159 53.3334 38.2681 52.9822 37.6429 52.357C37.0178 51.7319 36.6666 50.8841 36.6666 50C36.6666 49.116 37.0178 48.2681 37.6429 47.643C38.2681 47.0179 39.1159 46.6667 40 46.6667C40.8697 46.6615 41.7071 46.9964 42.3333 47.6C42.6523 47.9127 42.9052 48.2862 43.077 48.6985C43.2487 49.1108 43.3359 49.5534 43.3333 50C43.3333 50.8841 42.9821 51.7319 42.357 52.357C41.7319 52.9822 40.884 53.3334 40 53.3334Z" fill="#2F80ED"/>
</svg>
