<svg width="80" height="80" viewBox="0 0 80 80" fill="none" xmlns="http://www.w3.org/2000/svg">
<path d="M68.75 57.5C69.7442 57.4988 70.6974 57.1034 71.4004 56.4004C72.1034 55.6974 72.4988 54.7442 72.5 53.75V16.25C72.4988 15.2558 72.1034 14.3026 71.4004 13.5996C70.6974 12.8966 69.7442 12.5012 68.75 12.5H11.25C10.2558 12.5012 9.30264 12.8966 8.59963 13.5996C7.89662 14.3026 7.50116 15.2558 7.5 16.25V53.75C7.50116 54.7442 7.89662 55.6974 8.59963 56.4004C9.30264 57.1034 10.2558 57.4988 11.25 57.5H68.75ZM12.5 17.5H67.5V52.5H12.5V17.5Z" fill="#2F80ED"/>
<path d="M2.5 62.5H77.5V67.5H2.5V62.5Z" fill="#2F80ED"/>
</svg>
