<svg width="28" height="32" viewBox="0 0 28 32" fill="none" xmlns="http://www.w3.org/2000/svg">
<path d="M18.3852 19.5692C18.1895 19.5052 16.9526 18.9477 17.7255 16.5982H17.7145C19.7292 14.5231 21.2689 11.184 21.2689 7.89662C21.2689 2.84185 17.9077 0.192001 14.0012 0.192001C10.0923 0.192001 6.74954 2.84062 6.74954 7.89662C6.74954 11.1975 8.28062 14.5502 10.3077 16.6203C11.0979 18.6929 9.68493 19.4622 9.38954 19.5705C5.29847 21.0498 0.498466 23.7465 0.498466 26.4086V27.4068C0.498466 31.0338 7.53108 31.8585 14.0394 31.8585C20.5575 31.8585 27.5015 31.0338 27.5015 27.4068V26.4086C27.5015 23.6665 22.6782 20.9908 18.3852 19.5692Z" fill="#828282"/>
</svg>
