<svg width="80" height="80" viewBox="0 0 80 80" fill="none" xmlns="http://www.w3.org/2000/svg">
<path d="M73.0665 22.0667C72.7283 21.2522 72.081 20.6049 71.2665 20.2667C70.8658 20.0959 70.4354 20.0053 69.9999 20H53.3332C52.4491 20 51.6013 20.3512 50.9762 20.9763C50.351 21.6014 49.9999 22.4493 49.9999 23.3333C49.9999 24.2174 50.351 25.0652 50.9762 25.6904C51.6013 26.3155 52.4491 26.6667 53.3332 26.6667H61.9665L43.3332 45.3L32.3665 34.3C32.0566 33.9876 31.688 33.7396 31.2818 33.5704C30.8756 33.4011 30.4399 33.314 29.9998 33.314C29.5598 33.314 29.1241 33.4011 28.7179 33.5704C28.3117 33.7396 27.9431 33.9876 27.6332 34.3L7.63318 54.3C7.32075 54.6099 7.07277 54.9785 6.90354 55.3847C6.73431 55.7909 6.64719 56.2266 6.64719 56.6667C6.64719 57.1067 6.73431 57.5424 6.90354 57.9486C7.07277 58.3548 7.32075 58.7234 7.63318 59.0333C7.94306 59.3458 8.31173 59.5937 8.71793 59.763C9.12412 59.9322 9.55981 60.0193 9.99985 60.0193C10.4399 60.0193 10.8756 59.9322 11.2818 59.763C11.688 59.5937 12.0566 59.3458 12.3665 59.0333L29.9998 41.3667L40.9665 52.3667C41.2764 52.6791 41.6451 52.9271 42.0513 53.0963C42.4575 53.2655 42.8931 53.3527 43.3332 53.3527C43.7732 53.3527 44.2089 53.2655 44.6151 53.0963C45.0213 52.9271 45.39 52.6791 45.6998 52.3667L66.6665 31.3667V40C66.6665 40.8841 67.0177 41.7319 67.6428 42.357C68.2679 42.9821 69.1158 43.3333 69.9999 43.3333C70.8839 43.3333 71.7318 42.9821 72.3569 42.357C72.982 41.7319 73.3332 40.8841 73.3332 40V23.3333C73.3279 22.8977 73.2373 22.4674 73.0665 22.0667Z" fill="#2F80ED"/>
</svg>
