<svg width="80" height="80" viewBox="0 0 80 80" fill="none" xmlns="http://www.w3.org/2000/svg">
<path d="M42.4 36C40.8 35.6 39.2 34.8 38 33.6C36.8 33.2 36.4 32 36.4 31.2C36.4 30.4 36.8 29.2 37.6 28.8C38.8 28 40 27.2 41.2 27.6C43.6 27.6 45.6 28.8 46.8 30.4L50.4 25.6C49.2 24.4 48 23.6 46.8 22.8C45.6 22 44 21.6 42.4 21.6V16H37.6V21.6C35.6 22 33.6 23.2 32 24.8C30.4 26.8 29.2 29.2 29.6 31.6C29.6 34 30.4 36.4 32 38C34 40 36.8 41.2 39.2 42.4C40.4 42.8 42 43.6 43.2 44.4C44 45.2 44.4 46.4 44.4 47.6C44.4 48.8 44 50 43.2 51.2C42 52.4 40.4 52.8 39.2 52.8C37.6 52.8 35.6 52.4 34.4 51.2C33.2 50.4 32 49.2 31.2 48L27.2 52.4C28.4 54 29.6 55.2 31.2 56.4C33.2 57.6 35.6 58.8 38 58.8V64H42.4V58C44.8 57.6 46.8 56.4 48.4 54.8C50.4 52.8 51.6 49.6 51.6 46.8C51.6 44.4 50.8 41.6 48.8 40C46.8 38 44.8 36.8 42.4 36ZM40 8C22.4 8 8 22.4 8 40C8 57.6 22.4 72 40 72C57.6 72 72 57.6 72 40C72 22.4 57.6 8 40 8ZM40 67.6C24.8 67.6 12.4 55.2 12.4 40C12.4 24.8 24.8 12.4 40 12.4C55.2 12.4 67.6 24.8 67.6 40C67.6 55.2 55.2 67.6 40 67.6Z" fill="#2F80ED"/>
</svg>
