<svg width="80" height="80" viewBox="0 0 80 80" fill="none" xmlns="http://www.w3.org/2000/svg">
<path d="M72.7169 15.4708C72.4174 15.1287 72.0504 14.8521 71.639 14.6583C71.2277 14.4646 70.7807 14.3578 70.3262 14.3446C63.2646 14.16 54.3293 6.60926 48.4216 3.64618C44.7723 1.82157 42.3631 0.618489 40.5539 0.301566C40.1865 0.248035 39.8132 0.249072 39.4462 0.304642C37.6369 0.621566 35.2277 1.82464 31.5816 3.64926C25.6739 6.60926 16.7385 14.16 9.67695 14.3446C9.22209 14.3584 8.77491 14.4655 8.36313 14.6592C7.95135 14.853 7.58374 15.1292 7.2831 15.4708C6.65994 16.1758 6.33842 17.0973 6.38772 18.0369C7.90464 48.8769 18.9662 67.9631 38.3754 79.0554C38.88 79.3416 39.44 79.4893 39.9969 79.4893C40.5539 79.4893 41.1139 79.3416 41.6216 79.0554C61.0308 67.9631 72.0893 48.8769 73.6093 18.0369C73.6614 17.0974 73.3407 16.1753 72.7169 15.4708ZM57.2831 27.6L40.9046 51.7693C40.3169 52.6369 39.3939 53.2123 38.48 53.2123C37.5631 53.2123 36.5446 52.7108 35.9016 52.0677L24.3569 40.52C23.98 40.1417 23.7684 39.6294 23.7684 39.0954C23.7684 38.5614 23.98 38.0491 24.3569 37.6708L27.2093 34.8123C27.5884 34.4369 28.1003 34.2263 28.6339 34.2263C29.1674 34.2263 29.6794 34.4369 30.0585 34.8123L37.5662 42.32L50.6093 23.0677C50.911 22.6272 51.3749 22.3239 51.8995 22.2242C52.4241 22.1244 52.9669 22.2363 53.4093 22.5354L56.7477 24.8C57.1888 25.1013 57.4927 25.5649 57.593 26.0896C57.6933 26.6142 57.5819 27.1573 57.2831 27.6Z" fill="#2F80ED"/>
</svg>
